<?xml version="1.0" encoding="utf-8" standalone="no"?>
<!DOCTYPE svg PUBLIC "-//W3C//DTD SVG 1.1//EN"
  "http://www.w3.org/Graphics/SVG/1.1/DTD/svg11.dtd">
<svg xmlns:xlink="http://www.w3.org/1999/xlink" width="720pt" height="360pt" viewBox="0 0 720 360" xmlns="http://www.w3.org/2000/svg" version="1.1">
 <metadata>
  <rdf:RDF xmlns:dc="http://purl.org/dc/elements/1.1/" xmlns:cc="http://creativecommons.org/ns#" xmlns:rdf="http://www.w3.org/1999/02/22-rdf-syntax-ns#">
   <cc:Work>
    <dc:type rdf:resource="http://purl.org/dc/dcmitype/StillImage"/>
    <dc:date>2024-07-02T19:10:11.220014</dc:date>
    <dc:format>image/svg+xml</dc:format>
    <dc:creator>
     <cc:Agent>
      <dc:title>Matplotlib v3.5.0, https://matplotlib.org/</dc:title>
     </cc:Agent>
    </dc:creator>
   </cc:Work>
  </rdf:RDF>
 </metadata>
 <defs>
  <style type="text/css">*{stroke-linejoin: round; stroke-linecap: butt}</style>
 </defs>
 <g id="figure_1">
  <g id="patch_1">
   <path d="M 0 360 
L 720 360 
L 720 0 
L 0 0 
z
" style="fill: #ffffff"/>
  </g>
  <g id="axes_1">
   <g id="line2d_1">
    <path d="M 115.363636 55.8 
L 119.736677 55.8 
L 124.109718 55.866586 
L 128.482759 55.866586 
L 132.855799 57.737999 
L 137.22884 63.114934 
L 141.601881 72.130061 
L 145.974922 81.693394 
L 150.347962 91.704806 
L 154.721003 101.431851 
L 159.094044 110.626208 
L 163.467085 119.117159 
L 167.840125 127.69372 
L 172.213166 136.675303 
L 176.586207 145.153738 
L 180.959248 152.248888 
L 185.332288 157.387516 
L 189.705329 162.263805 
L 194.07837 167.689302 
L 198.451411 173.797179 
L 202.824451 180.218961 
L 207.197492 186.473527 
L 211.570533 191.77937 
L 215.943574 196.902477 
L 220.316614 203.476456 
L 224.689655 211.323075 
L 229.062696 219.824039 
L 233.435737 228.556301 
L 237.808777 237.733136 
L 242.181818 247.694984 
L 246.554859 258.272125 
L 250.9279 267.698282 
L 255.30094 275.474861 
L 259.673981 282.936184 
L 264.047022 290.010808 
L 268.420063 296.134956 
L 272.793103 301.074727 
L 277.166144 305.16355 
L 281.539185 307.332848 
L 285.912226 307.8 
L 290.285266 307.8 
L 294.658307 307.8 
L 299.031348 307.8 
L 303.404389 307.8 
L 307.777429 307.8 
L 312.15047 307.8 
L 316.523511 307.8 
L 320.896552 307.8 
L 325.269592 307.8 
L 329.642633 307.8 
L 334.015674 307.8 
L 338.388715 307.8 
L 342.761755 307.8 
L 347.134796 307.8 
L 351.507837 307.8 
L 355.880878 307.8 
L 360.253918 307.8 
L 364.626959 307.8 
L 369 307.8 
L 373.373041 307.8 
L 377.746082 307.8 
L 382.119122 307.8 
L 386.492163 307.8 
L 390.865204 307.8 
L 395.238245 307.8 
L 399.611285 307.8 
L 403.984326 307.8 
L 408.357367 307.8 
L 412.730408 307.8 
L 417.103448 307.8 
L 421.476489 307.8 
L 425.84953 307.8 
L 430.222571 307.8 
L 434.595611 307.8 
L 438.968652 307.8 
L 443.341693 307.8 
L 447.714734 307.8 
L 452.087774 306.715051 
L 456.460815 305.045898 
L 460.833856 303.543661 
L 465.206897 303.543661 
L 469.579937 303.543661 
L 473.952978 303.543661 
L 478.326019 303.543661 
L 482.69906 303.543661 
L 487.0721 303.543661 
L 491.445141 303.543661 
L 495.818182 303.543661 
L 500.191223 303.543661 
L 504.564263 302.609356 
L 508.937304 300.273343 
L 513.310345 295.667753 
L 517.683386 290.094115 
L 522.056426 283.435528 
L 526.429467 275.610886 
L 530.802508 265.245118 
L 535.175549 252.329961 
L 539.548589 237.407216 
L 543.92163 221.819112 
L 548.294671 206.901873 
L 552.667712 193.466546 
L 557.040752 181.289341 
L 561.413793 170.67315 
L 565.786834 161.02771 
L 570.159875 153.703765 
L 574.532915 148.083016 
L 578.905956 142.758148 
L 583.278997 135.710059 
L 587.652038 127.064408 
L 592.025078 117.234731 
L 596.398119 107.221818 
L 600.77116 98.575667 
L 605.144201 90.98688 
L 609.517241 83.012095 
L 613.890282 74.085082 
L 618.263323 64.310976 
L 622.636364 57.081653 
" clip-path="url(#p9081f42090)" style="fill: none; stroke: #000000; stroke-width: 4; stroke-linecap: square"/>
   </g>
  </g>
 </g>
 <defs>
  <clipPath id="p9081f42090">
   <rect x="90" y="43.2" width="558" height="277.2"/>
  </clipPath>
 </defs>
</svg>
