<?xml version="1.0" encoding="utf-8" standalone="no"?>
<!DOCTYPE svg PUBLIC "-//W3C//DTD SVG 1.1//EN"
  "http://www.w3.org/Graphics/SVG/1.1/DTD/svg11.dtd">
<svg xmlns:xlink="http://www.w3.org/1999/xlink" width="720pt" height="360pt" viewBox="0 0 720 360" xmlns="http://www.w3.org/2000/svg" version="1.1">
 <metadata>
  <rdf:RDF xmlns:dc="http://purl.org/dc/elements/1.1/" xmlns:cc="http://creativecommons.org/ns#" xmlns:rdf="http://www.w3.org/1999/02/22-rdf-syntax-ns#">
   <cc:Work>
    <dc:type rdf:resource="http://purl.org/dc/dcmitype/StillImage"/>
    <dc:date>2024-07-02T19:10:12.158925</dc:date>
    <dc:format>image/svg+xml</dc:format>
    <dc:creator>
     <cc:Agent>
      <dc:title>Matplotlib v3.5.0, https://matplotlib.org/</dc:title>
     </cc:Agent>
    </dc:creator>
   </cc:Work>
  </rdf:RDF>
 </metadata>
 <defs>
  <style type="text/css">*{stroke-linejoin: round; stroke-linecap: butt}</style>
 </defs>
 <g id="figure_1">
  <g id="patch_1">
   <path d="M 0 360 
L 720 360 
L 720 0 
L 0 0 
z
" style="fill: #ffffff"/>
  </g>
  <g id="axes_1">
   <g id="line2d_1">
    <path d="M 115.363636 55.8 
L 118.594673 55.8 
L 121.825709 55.8 
L 125.056746 55.8 
L 128.287782 55.8 
L 131.518819 55.8 
L 134.749855 55.8 
L 137.980892 55.8 
L 141.211928 55.8 
L 144.442965 55.8 
L 147.674001 55.8 
L 150.905038 55.8 
L 154.136074 55.8 
L 157.367111 55.8 
L 160.598147 55.8 
L 163.829184 55.8 
L 167.06022 55.8 
L 170.291257 55.8 
L 173.522293 55.8 
L 176.753329 55.8 
L 179.984366 55.8 
L 183.215402 55.8 
L 186.446439 55.8 
L 189.677475 55.8 
L 192.908512 55.8 
L 196.139548 55.8 
L 199.370585 55.8 
L 202.601621 55.8 
L 205.832658 55.8 
L 209.063694 55.8 
L 212.294731 55.8 
L 215.525767 55.8 
L 218.756804 55.8 
L 221.98784 55.8 
L 225.218877 56.790212 
L 228.449913 58.440565 
" clip-path="url(#p74ef2df693)" style="fill: none; stroke: #000000; stroke-width: 4; stroke-linecap: square"/>
   </g>
   <g id="line2d_2">
    <path d="M 228.449913 58.440565 
L 231.68095 60.0084 
L 234.911986 60.0084 
L 238.143023 60.0084 
L 241.374059 60.0084 
L 244.605096 60.0084 
L 247.836132 60.0084 
L 251.067169 65.443694 
L 254.298205 75.622518 
L 257.529241 91.730753 
L 260.760278 104.083694 
L 263.991314 113.966047 
L 267.222351 119.036188 
L 270.453387 120.399953 
L 273.684424 121.32 
L 276.91546 121.32 
L 280.146497 121.32 
L 283.377533 122.16 
L 286.60857 123.148235 
L 289.839606 123.84 
L 293.070643 124.136471 
L 296.301679 127.101176 
L 299.532716 130.065882 
L 302.763752 133.178824 
L 305.994789 141.742376 
L 309.225825 156.086612 
L 312.456862 172.194847 
L 315.687898 183.792776 
L 318.918935 189.36 
" clip-path="url(#p74ef2df693)" style="fill: none; stroke-dasharray: 7.4,3.2; stroke-dashoffset: 0; stroke: #d3d3d3; stroke-width: 2"/>
   </g>
   <g id="line2d_3">
    <path d="M 318.918935 189.36 
L 322.149971 189.36 
L 325.381008 189.36 
L 328.612044 189.36 
L 331.84308 189.36 
L 335.074117 189.36 
L 338.305153 189.36 
L 341.53619 189.36 
L 344.767226 189.36 
L 347.998263 189.36 
L 351.229299 189.36 
L 354.460336 189.36 
L 357.691372 189.36 
L 360.922409 189.36 
L 364.153445 189.36 
L 367.384482 189.36 
L 370.615518 189.36 
L 373.846555 189.36 
L 377.077591 189.36 
L 380.308628 189.36 
L 383.539664 189.36 
L 386.770701 189.36 
L 390.001737 189.36 
L 393.232774 189.36 
L 396.46381 189.36 
L 399.694847 189.36 
L 402.925883 189.36 
L 406.15692 189.36 
L 409.387956 189.36 
L 412.618992 189.36 
L 415.850029 189.36 
L 419.081065 189.36 
L 422.312102 189.36 
L 425.543138 189.36 
L 428.774175 189.36 
L 432.005211 190.002353 
L 435.236248 190.990588 
" clip-path="url(#p74ef2df693)" style="fill: none; stroke: #000000; stroke-width: 4; stroke-linecap: square"/>
   </g>
   <g id="line2d_4">
    <path d="M 435.236248 190.990588 
L 438.467284 191.88 
L 441.698321 191.88 
L 444.929357 191.88 
L 448.160394 191.88 
L 451.39143 191.88 
L 454.622467 191.88 
L 457.853503 191.88 
L 461.08454 191.88 
L 464.315576 191.88 
L 467.546613 191.88 
L 470.777649 191.88 
L 474.008686 191.88 
L 477.239722 194.251765 
L 480.470759 200.920871 
L 483.701795 213.451694 
L 486.932831 230.083694 
L 490.163868 249.622094 
L 493.394904 270.872661 
L 496.625941 291.429981 
L 499.856977 302.23248 
L 503.088014 307.141045 
" clip-path="url(#p74ef2df693)" style="fill: none; stroke-dasharray: 7.4,3.2; stroke-dashoffset: 0; stroke: #d3d3d3; stroke-width: 2"/>
   </g>
   <g id="line2d_5">
    <path d="M 503.088014 307.141045 
L 506.31905 307.8 
L 509.550087 307.8 
L 512.781123 307.8 
L 516.01216 307.8 
L 519.243196 307.8 
L 522.474233 307.8 
L 525.705269 307.8 
L 528.936306 307.8 
L 532.167342 307.8 
L 535.398379 307.8 
L 538.629415 307.404706 
L 541.860452 303.451765 
L 545.091488 299.498824 
L 548.322525 297.72 
L 551.553561 297.72 
L 554.784598 297.72 
L 558.015634 297.72 
L 561.246671 297.72 
L 564.477707 297.72 
L 567.708743 297.72 
L 570.93978 297.72 
L 574.170816 297.72 
L 577.401853 292.020748 
L 580.632889 276.89976 
L 583.863926 257.976586 
L 587.094962 239.533694 
L 590.325999 220.577365 
L 593.557035 201.454518 
L 596.788072 186.462988 
L 600.019108 175.030588 
L 603.250145 165.953153 
L 606.481181 151.653388 
L 609.712218 134.653765 
L 612.943254 115.768588 
L 616.174291 94.279412 
L 619.405327 72.405812 
L 622.636364 60.082518 
" clip-path="url(#p74ef2df693)" style="fill: none; stroke: #000000; stroke-width: 4; stroke-linecap: square"/>
   </g>
  </g>
 </g>
 <defs>
  <clipPath id="p74ef2df693">
   <rect x="90" y="43.2" width="558" height="277.2"/>
  </clipPath>
 </defs>
</svg>
