<?xml version="1.0" encoding="utf-8" standalone="no"?>
<!DOCTYPE svg PUBLIC "-//W3C//DTD SVG 1.1//EN"
  "http://www.w3.org/Graphics/SVG/1.1/DTD/svg11.dtd">
<svg xmlns:xlink="http://www.w3.org/1999/xlink" width="720pt" height="360pt" viewBox="0 0 720 360" xmlns="http://www.w3.org/2000/svg" version="1.1">
 <metadata>
  <rdf:RDF xmlns:dc="http://purl.org/dc/elements/1.1/" xmlns:cc="http://creativecommons.org/ns#" xmlns:rdf="http://www.w3.org/1999/02/22-rdf-syntax-ns#">
   <cc:Work>
    <dc:type rdf:resource="http://purl.org/dc/dcmitype/StillImage"/>
    <dc:date>2024-07-02T19:10:10.164864</dc:date>
    <dc:format>image/svg+xml</dc:format>
    <dc:creator>
     <cc:Agent>
      <dc:title>Matplotlib v3.5.0, https://matplotlib.org/</dc:title>
     </cc:Agent>
    </dc:creator>
   </cc:Work>
  </rdf:RDF>
 </metadata>
 <defs>
  <style type="text/css">*{stroke-linejoin: round; stroke-linecap: butt}</style>
 </defs>
 <g id="figure_1">
  <g id="patch_1">
   <path d="M 0 360 
L 720 360 
L 720 0 
L 0 0 
z
" style="fill: #ffffff"/>
  </g>
  <g id="axes_1">
   <g id="line2d_1">
    <path d="M 115.363636 55.8 
L 117.322218 55.8 
L 119.2808 55.860111 
L 121.239382 55.860111 
L 123.197964 55.860111 
L 125.156546 55.860111 
L 127.115128 55.860111 
L 129.07371 55.860111 
L 131.032292 55.860111 
L 132.990874 55.860111 
L 134.949456 55.860111 
L 136.908038 55.860111 
L 138.86662 55.860111 
L 140.825202 55.860111 
L 142.783784 56.12908 
L 144.742366 57.92221 
L 146.700948 63.283261 
L 148.65953 68.198067 
L 150.618112 71.196465 
L 152.576694 73.564211 
L 154.535276 78.6242 
L 156.493857 88.358552 
L 158.452439 98.336912 
L 160.411021 108.918415 
L 162.369603 118.778592 
L 164.328185 128.187939 
L 166.286767 136.305927 
L 168.245349 143.799376 
L 170.203931 150.424277 
L 172.162513 155.341121 
L 174.121095 157.976818 
L 176.079677 157.375712 
L 178.038259 155.632505 
L 179.996841 155.181675 
L 181.955423 155.181675 
L 183.914005 155.181675 
L 185.872587 155.181675 
L 187.831169 155.181675 
L 189.789751 155.181675 
L 191.748333 153.477692 
L 193.706915 147.184927 
L 195.665497 137.534119 
L 197.624079 126.716248 
L 199.582661 115.06396 
L 201.541243 106.015277 
L 203.499824 97.776049 
L 205.458406 91.784347 
L 207.416988 87.284202 
L 209.37557 85.064185 
L 211.334152 83.210944 
L 213.292734 82.018921 
L 215.251316 81.840117 
L 217.209898 84.114641 
L 219.16848 86.508877 
L 221.127062 87.945418 
L 223.085644 87.945418 
L 225.044226 87.945418 
L 227.002808 87.945418 
L 228.96139 87.945418 
L 230.919972 88.06564 
L 232.878554 91.065057 
L 234.837136 97.50708 
L 236.795718 106.884334 
L 238.7543 116.143914 
L 240.712882 125.823249 
L 242.671464 133.133819 
L 244.630046 139.187161 
L 246.588628 143.679155 
L 248.54721 147.936819 
L 250.505792 150.69885 
L 252.464373 153.393639 
L 254.422955 154.585663 
L 256.381537 153.836828 
L 258.340119 152.043698 
L 260.298701 150.609194 
L 262.257283 150.609194 
L 264.215865 150.609194 
L 266.174447 150.488973 
L 268.133029 148.565433 
L 270.091611 143.469277 
L 272.050193 133.761414 
L 274.008775 123.034219 
L 275.967357 112.09307 
L 277.925939 102.594576 
L 279.884521 94.295238 
L 281.843103 87.407989 
L 283.801685 82.584877 
L 285.760267 79.19525 
L 287.718849 76.850937 
L 289.677431 74.576413 
L 291.636013 73.143947 
L 293.594595 71.22652 
L 295.553177 70.024308 
L 297.511759 69.603534 
L 299.47034 70.625414 
L 301.428922 71.827626 
L 303.387504 72.669175 
L 305.346086 72.669175 
L 307.304668 73.29677 
L 309.26325 75.568747 
L 311.221832 81.82891 
L 313.180414 90.101759 
L 315.138996 100.11425 
L 317.097578 109.162933 
L 319.05616 117.009404 
L 321.014742 121.265541 
L 322.973324 123.096367 
L 324.931906 123.096367 
L 326.890488 123.096367 
L 328.84907 123.096367 
L 330.807652 123.096367 
L 332.766234 123.096367 
L 334.724816 124.058137 
L 336.683398 125.260349 
" clip-path="url(#p8da831656e)" style="fill: none; stroke: #000000; stroke-width: 4; stroke-linecap: square"/>
   </g>
   <g id="line2d_2">
    <path d="M 336.683398 125.260349 
L 338.64198 126.162008 
L 340.600562 126.162008 
L 342.559144 126.162008 
L 344.517726 126.162008 
L 346.476307 126.162008 
L 348.434889 126.162008 
L 350.393471 126.162008 
L 352.352053 126.162008 
L 354.310635 126.521143 
L 356.269217 128.915379 
L 358.227799 131.905627 
L 360.186381 135.918774 
L 362.144963 142.1499 
L 364.103545 150.604609 
L 366.062127 160.609968 
L 368.020709 170.621949 
L 369.979291 181.316543 
L 371.937873 190.786 
L 373.896455 200.613574 
L 375.855037 209.961283 
L 377.813619 218.383389 
L 379.772201 226.892096 
L 381.730783 235.280582 
L 383.689365 242.476025 
L 385.647947 246.079604 
L 387.606529 246.891098 
" clip-path="url(#p8da831656e)" style="fill: none; stroke-dasharray: 7.4,3.2; stroke-dashoffset: 0; stroke: #d3d3d3; stroke-width: 2"/>
   </g>
   <g id="line2d_3">
    <path d="M 387.606529 246.891098 
L 389.565111 246.891098 
L 391.523693 246.891098 
L 393.482274 246.891098 
L 395.440856 246.891098 
L 397.399438 246.891098 
L 399.35802 246.891098 
L 401.316602 246.891098 
L 403.275184 246.891098 
L 405.233766 246.891098 
L 407.192348 246.891098 
L 409.15093 246.891098 
L 411.109512 246.891098 
L 413.068094 246.891098 
L 415.026676 246.891098 
L 416.985258 248.415258 
L 418.94384 250.208388 
L 420.902422 251.463579 
L 422.861004 251.463579 
L 424.819586 251.463579 
L 426.778168 251.463579 
L 428.73675 251.463579 
L 430.695332 251.463579 
L 432.653914 251.463579 
L 434.612496 251.463579 
L 436.571078 251.463579 
L 438.52966 251.463579 
L 440.488241 251.463579 
L 442.446823 252.42433 
L 444.405405 255.479782 
L 446.363987 261.055805 
L 448.322569 267.950695 
L 450.281151 275.021332 
L 452.239733 282.419724 
L 454.198315 290.958996 
L 456.156897 299.049883 
L 458.115479 305.852416 
L 460.074061 307.8 
L 462.032643 307.200626 
L 463.991225 306.481438 
L 465.949807 306.481438 
L 467.908389 306.481438 
L 469.866971 306.481438 
L 471.825553 306.481438 
L 473.784135 306.481438 
L 475.742717 306.481438 
L 477.701299 306.481438 
L 479.659881 306.481438 
L 481.618463 306.481438 
L 483.577045 306.481438 
L 485.535627 306.481438 
L 487.494208 306.481438 
L 489.45279 306.481438 
L 491.411372 305.282894 
L 493.369954 300.158924 
L 495.328536 291.292508 
L 497.287118 282.303171 
L 499.2457 273.610261 
L 501.204282 266.384762 
L 503.162864 261.347698 
L 505.121446 258.59076 
L 507.080028 258.831203 
L 509.03861 260.033415 
L 510.997192 260.634521 
L 512.955774 260.634521 
L 514.914356 260.634521 
L 516.872938 260.634521 
L 518.83152 260.634521 
L 520.790102 260.634521 
L 522.748684 260.634521 
L 524.707266 260.634521 
L 526.665848 262.193831 
L 528.62443 265.730168 
L 530.583012 271.604197 
L 532.541594 279.005748 
L 534.500176 286.973867 
L 536.458757 294.135535 
L 538.417339 299.349315 
L 540.375921 303.03542 
L 542.334503 305.792153 
L 544.293085 307.409994 
L 546.251667 307.769435 
L 548.210249 306.571299 
L 550.168831 305.373162 
L 552.127413 304.953814 
L 554.085995 304.953814 
L 556.044577 304.953814 
L 558.003159 304.953814 
L 559.961741 304.953814 
L 561.920323 304.114762 
L 563.878905 300.099119 
L 565.837487 291.801105 
L 567.796069 280.801017 
L 569.754651 269.415254 
L 571.713233 258.626419 
L 573.671815 249.398932 
L 575.630397 243.643087 
L 577.588979 239.150075 
L 579.547561 236.335064 
L 581.506143 234.834846 
L 583.464724 235.496063 
L 585.423306 236.698275 
L 587.381888 237.720155 
L 589.34047 237.720155 
L 591.299052 237.720155 
L 593.257634 237.720155 
L 595.216216 237.720155 
L 597.174798 237.720155 
L 599.13338 238.88569 
L 601.091962 241.400147 
L 603.050544 246.821308 
L 605.009126 254.162952 
L 606.967708 262.79239 
L 608.92629 270.072904 
L 610.884872 276.461439 
L 612.843454 280.776158 
L 614.802036 283.651278 
L 616.760618 284.843302 
L 618.7192 285.081707 
L 620.677782 285.081707 
L 622.636364 285.081707 
" clip-path="url(#p8da831656e)" style="fill: none; stroke: #000000; stroke-width: 4; stroke-linecap: square"/>
   </g>
  </g>
 </g>
 <defs>
  <clipPath id="p8da831656e">
   <rect x="90" y="43.2" width="558" height="277.2"/>
  </clipPath>
 </defs>
</svg>
