<?xml version="1.0" encoding="utf-8" standalone="no"?>
<!DOCTYPE svg PUBLIC "-//W3C//DTD SVG 1.1//EN"
  "http://www.w3.org/Graphics/SVG/1.1/DTD/svg11.dtd">
<svg xmlns:xlink="http://www.w3.org/1999/xlink" width="720pt" height="360pt" viewBox="0 0 720 360" xmlns="http://www.w3.org/2000/svg" version="1.1">
 <metadata>
  <rdf:RDF xmlns:dc="http://purl.org/dc/elements/1.1/" xmlns:cc="http://creativecommons.org/ns#" xmlns:rdf="http://www.w3.org/1999/02/22-rdf-syntax-ns#">
   <cc:Work>
    <dc:type rdf:resource="http://purl.org/dc/dcmitype/StillImage"/>
    <dc:date>2024-07-02T19:10:09.512573</dc:date>
    <dc:format>image/svg+xml</dc:format>
    <dc:creator>
     <cc:Agent>
      <dc:title>Matplotlib v3.5.0, https://matplotlib.org/</dc:title>
     </cc:Agent>
    </dc:creator>
   </cc:Work>
  </rdf:RDF>
 </metadata>
 <defs>
  <style type="text/css">*{stroke-linejoin: round; stroke-linecap: butt}</style>
 </defs>
 <g id="figure_1">
  <g id="patch_1">
   <path d="M 0 360 
L 720 360 
L 720 0 
L 0 0 
z
" style="fill: #ffffff"/>
  </g>
  <g id="axes_1">
   <g id="line2d_1">
    <path d="M 115.363636 305.120399 
L 118.814471 305.120399 
L 122.265306 305.032064 
L 125.716141 305.032064 
L 129.166976 305.032064 
L 132.617811 305.032064 
L 136.068646 305.032064 
L 139.519481 305.032064 
L 142.970315 305.032064 
L 146.42115 305.032064 
L 149.871985 305.032064 
L 153.32282 303.531235 
L 156.773655 300.528626 
L 160.22449 296.288989 
L 163.675325 292.402689 
L 167.12616 289.723638 
L 170.576994 287.721532 
L 174.027829 285.601913 
L 177.478664 283.632038 
L 180.929499 280.749693 
L 184.380334 276.921048 
L 187.831169 272.027388 
L 191.282004 266.166307 
L 194.732839 258.753749 
L 198.183673 251.571911 
L 201.634508 244.47165 
L 205.085343 238.553014 
L 208.536178 233.87506 
L 211.987013 228.992411 
L 215.437848 223.369056 
L 218.888683 217.186169 
L 222.339518 210.330641 
L 225.790353 203.414056 
L 229.241187 195.228261 
L 232.692022 187.395803 
L 236.142857 180.212463 
L 239.593692 172.410034 
L 243.044527 164.514516 
L 246.495362 157.741567 
L 249.946197 151.355486 
L 253.397032 145.411827 
L 256.847866 139.287495 
L 260.298701 133.309803 
L 263.749536 126.304633 
L 267.200371 119.47463 
L 270.651206 112.199703 
L 274.102041 105.222059 
L 277.552876 97.951136 
L 281.003711 91.061575 
L 284.454545 83.93579 
L 287.90538 77.049233 
L 291.356215 70.575569 
L 294.80705 65.512248 
L 298.257885 62.743111 
L 301.70872 61.561986 
L 305.159555 60.380862 
L 308.61039 58.204289 
" clip-path="url(#p419c2f924a)" style="fill: none; stroke: #000000; stroke-width: 4; stroke-linecap: square"/>
   </g>
   <g id="line2d_2">
    <path d="M 308.61039 58.204289 
L 312.061224 56.619781 
L 315.512059 55.8 
L 318.962894 55.8 
L 322.413729 55.8 
L 325.864564 55.8 
L 329.315399 55.8 
L 332.766234 55.8 
L 336.217069 55.8 
L 339.667904 55.8 
L 343.118738 55.8 
L 346.569573 55.8 
L 350.020408 55.8 
L 353.471243 55.8 
L 356.922078 55.8 
L 360.372913 55.8 
L 363.823748 55.8 
L 367.274583 55.8 
" clip-path="url(#p419c2f924a)" style="fill: none; stroke-dasharray: 7.4,3.2; stroke-dashoffset: 0; stroke: #d3d3d3; stroke-width: 2"/>
   </g>
   <g id="line2d_3">
    <path d="M 367.274583 55.8 
L 370.725417 55.8 
L 374.176252 55.8 
L 377.627087 55.8 
L 381.077922 55.8 
L 384.528757 55.8 
L 387.979592 55.8 
L 391.430427 55.8 
L 394.881262 55.8 
L 398.332096 55.8 
L 401.782931 55.8 
L 405.233766 55.8 
L 408.684601 55.8 
L 412.135436 55.8 
L 415.586271 55.888084 
L 419.037106 57.649761 
L 422.487941 59.411439 
L 425.938776 60.292277 
L 429.38961 60.292277 
L 432.840445 60.292277 
L 436.29128 60.292277 
L 439.742115 60.292277 
L 443.19295 60.292277 
L 446.643785 60.292277 
L 450.09462 60.292277 
L 453.545455 61.591014 
L 456.996289 67.246399 
L 460.447124 76.435649 
L 463.897959 85.208002 
L 467.348794 93.335741 
L 470.799629 100.489052 
L 474.250464 106.052349 
L 477.701299 109.580709 
L 481.152134 113.585522 
L 484.602968 118.711904 
L 488.053803 124.396316 
L 491.504638 130.16581 
L 494.955473 135.576962 
L 498.406308 141.727318 
L 501.857143 148.354629 
L 505.307978 154.18418 
L 508.758813 159.922143 
L 512.209647 164.929912 
L 515.660482 170.232961 
L 519.111317 174.058604 
L 522.562152 177.735104 
L 526.012987 180.914131 
L 529.463822 184.71425 
L 532.914657 189.600903 
L 536.365492 195.015058 
L 539.816327 200.755524 
L 543.267161 206.526019 
L 546.717996 212.472681 
L 550.168831 218.77318 
L 553.619666 225.457545 
L 557.070501 230.931757 
L 560.521336 235.196318 
L 563.972171 240.501369 
L 567.423006 245.449581 
L 570.87384 249.630562 
L 574.324675 254.425127 
L 577.77551 259.956394 
L 581.226345 264.903605 
L 584.67718 268.32186 
L 588.128015 271.618999 
L 591.57885 275.388588 
L 595.029685 278.565614 
L 598.480519 281.949536 
L 601.931354 285.364738 
L 605.382189 288.635001 
L 608.833024 291.814929 
L 612.283859 296.348296 
L 615.734694 300.17534 
L 619.185529 304.738385 
L 622.636364 307.8 
" clip-path="url(#p419c2f924a)" style="fill: none; stroke: #000000; stroke-width: 4; stroke-linecap: square"/>
   </g>
  </g>
 </g>
 <defs>
  <clipPath id="p419c2f924a">
   <rect x="90" y="43.2" width="558" height="277.2"/>
  </clipPath>
 </defs>
</svg>
