<?xml version="1.0" encoding="utf-8" standalone="no"?>
<!DOCTYPE svg PUBLIC "-//W3C//DTD SVG 1.1//EN"
  "http://www.w3.org/Graphics/SVG/1.1/DTD/svg11.dtd">
<svg xmlns:xlink="http://www.w3.org/1999/xlink" width="720pt" height="360pt" viewBox="0 0 720 360" xmlns="http://www.w3.org/2000/svg" version="1.1">
 <metadata>
  <rdf:RDF xmlns:dc="http://purl.org/dc/elements/1.1/" xmlns:cc="http://creativecommons.org/ns#" xmlns:rdf="http://www.w3.org/1999/02/22-rdf-syntax-ns#">
   <cc:Work>
    <dc:type rdf:resource="http://purl.org/dc/dcmitype/StillImage"/>
    <dc:date>2024-07-02T19:10:10.574133</dc:date>
    <dc:format>image/svg+xml</dc:format>
    <dc:creator>
     <cc:Agent>
      <dc:title>Matplotlib v3.5.0, https://matplotlib.org/</dc:title>
     </cc:Agent>
    </dc:creator>
   </cc:Work>
  </rdf:RDF>
 </metadata>
 <defs>
  <style type="text/css">*{stroke-linejoin: round; stroke-linecap: butt}</style>
 </defs>
 <g id="figure_1">
  <g id="patch_1">
   <path d="M 0 360 
L 720 360 
L 720 0 
L 0 0 
z
" style="fill: #ffffff"/>
  </g>
  <g id="axes_1">
   <g id="line2d_1">
    <path d="M 115.363636 196.884028 
L 117.862517 196.884028 
L 120.361397 196.884028 
L 122.860278 196.884028 
L 125.359158 196.884028 
L 127.858039 196.884028 
L 130.356919 196.884028 
L 132.855799 196.884028 
L 135.35468 196.884028 
L 137.85356 196.884028 
L 140.352441 196.884028 
L 142.851321 196.884028 
L 145.350202 196.884028 
L 147.849082 196.884028 
L 150.347962 196.884028 
L 152.846843 196.884028 
L 155.345723 196.884028 
L 157.844604 196.884028 
L 160.343484 196.884028 
L 162.842365 196.884028 
L 165.341245 196.884028 
L 167.840125 196.884028 
L 170.339006 196.884028 
L 172.837886 196.884028 
L 175.336767 196.884028 
L 177.835647 196.884028 
L 180.334528 196.884028 
L 182.833408 196.884028 
L 185.332288 196.884028 
L 187.831169 196.884028 
L 190.330049 196.884028 
L 192.82893 196.884028 
L 195.32781 196.884028 
L 197.826691 196.884028 
L 200.325571 196.884028 
L 202.824451 197.653916 
L 205.323332 198.937061 
" clip-path="url(#p0d409c37ec)" style="fill: none; stroke: #000000; stroke-width: 4; stroke-linecap: square"/>
   </g>
   <g id="line2d_2">
    <path d="M 205.323332 198.937061 
L 207.822212 200.15605 
L 210.321093 200.15605 
L 212.819973 200.15605 
L 215.318854 200.15605 
L 217.817734 200.15605 
L 220.316614 201.274996 
L 222.815495 204.471986 
L 225.314375 207.732589 
L 227.813256 213.58395 
L 230.312136 222.598592 
L 232.811017 233.788599 
L 235.309897 244.248411 
L 237.808777 254.739757 
L 240.307658 265.071797 
L 242.806538 275.434393 
L 245.305419 284.163426 
L 247.804299 291.233177 
L 250.30318 297.949901 
L 252.80206 302.939379 
L 255.30094 306.393325 
L 257.799821 307.67212 
" clip-path="url(#p0d409c37ec)" style="fill: none; stroke-dasharray: 7.4,3.2; stroke-dashoffset: 0; stroke: #d3d3d3; stroke-width: 2"/>
   </g>
   <g id="line2d_3">
    <path d="M 257.799821 307.67212 
L 260.298701 307.8 
L 277.790864 307.8 
L 280.289745 307.224216 
L 285.287506 303.385653 
L 287.786386 302.905833 
L 332.766234 302.905833 
L 335.265114 301.083331 
L 337.763995 296.030347 
L 340.262875 290.145711 
L 342.761755 288.290044 
L 347.759516 290.944198 
L 350.258397 290.3048 
L 352.757277 289.37751 
L 355.256158 288.226104 
L 357.755038 286.498588 
L 360.253918 281.991267 
L 362.752799 279.177046 
L 365.251679 279.114085 
L 367.75056 280.390706 
L 370.24944 282.917035 
L 372.748321 282.659427 
L 375.247201 280.930769 
L 377.746082 278.434997 
L 395.238245 278.434997 
L 397.737125 274.596434 
L 400.236005 270.119017 
L 402.734886 263.853896 
L 405.233766 256.305629 
L 407.732647 248.246823 
L 410.231527 245.307006 
L 412.730408 246.299812 
L 415.229288 251.158911 
L 417.728168 254.864265 
L 420.227049 255.377523 
L 422.725929 252.182708 
L 425.22481 246.491197 
L 427.72369 238.461207 
L 430.222571 233.856019 
L 432.721451 234.112648 
L 435.220331 236.419048 
L 437.719212 237.691319 
L 440.218092 234.494329 
L 442.716973 230.343136 
L 445.215853 224.937614 
L 447.714734 218.380522 
L 450.213614 211.152498 
L 452.712494 208.982025 
L 455.211375 209.685036 
L 457.710255 211.85551 
L 460.209136 212.622135 
L 462.708016 211.731545 
L 465.206897 208.661239 
L 467.705777 203.795072 
L 470.204657 197.00745 
L 472.703538 192.94488 
L 475.202418 192.463701 
L 477.701299 194.189423 
L 480.200179 193.939318 
L 482.69906 192.667047 
L 485.19794 190.367715 
L 487.69682 189.212884 
L 490.195701 184.15479 
L 492.694581 176.922959 
L 495.193462 171.937178 
L 497.692342 166.568627 
L 500.191223 162.730065 
L 502.690103 161.002712 
L 507.687864 161.002712 
L 510.186744 157.928056 
L 512.685625 151.052353 
L 515.184505 142.068703 
L 517.683386 136.826292 
L 520.182266 134.909729 
L 530.177788 134.813493 
L 532.676668 132.379866 
L 535.175549 128.697891 
L 537.674429 127.093959 
L 540.173309 128.111233 
L 542.67219 130.835742 
L 545.17107 137.171545 
L 547.669951 142.160589 
L 550.168831 140.369079 
L 552.667712 134.48727 
L 555.166592 127.482709 
L 557.665472 118.686637 
L 560.164353 113.060914 
L 562.663233 111.234063 
L 565.162114 112.766769 
L 567.660994 112.317668 
L 570.159875 111.676096 
L 572.658755 110.234188 
L 575.157635 107.203572 
L 577.656516 100.87375 
L 580.155396 93.583743 
L 582.654277 90.322596 
L 585.153157 89.240078 
L 592.649798 89.240078 
L 595.148679 89.047606 
L 597.647559 86.486752 
L 602.64532 77.494403 
L 605.144201 75.441914 
L 607.643081 74.543712 
L 610.141961 74.543712 
L 612.640842 74.098417 
L 615.139722 71.06182 
L 617.638603 65.656298 
L 620.137483 59.381933 
L 622.636364 55.8 
L 622.636364 55.8 
" clip-path="url(#p0d409c37ec)" style="fill: none; stroke: #000000; stroke-width: 4; stroke-linecap: square"/>
   </g>
  </g>
 </g>
 <defs>
  <clipPath id="p0d409c37ec">
   <rect x="90" y="43.2" width="558" height="277.2"/>
  </clipPath>
 </defs>
</svg>
