<?xml version="1.0" encoding="utf-8" standalone="no"?>
<!DOCTYPE svg PUBLIC "-//W3C//DTD SVG 1.1//EN"
  "http://www.w3.org/Graphics/SVG/1.1/DTD/svg11.dtd">
<svg xmlns:xlink="http://www.w3.org/1999/xlink" width="720pt" height="360pt" viewBox="0 0 720 360" xmlns="http://www.w3.org/2000/svg" version="1.1">
 <metadata>
  <rdf:RDF xmlns:dc="http://purl.org/dc/elements/1.1/" xmlns:cc="http://creativecommons.org/ns#" xmlns:rdf="http://www.w3.org/1999/02/22-rdf-syntax-ns#">
   <cc:Work>
    <dc:type rdf:resource="http://purl.org/dc/dcmitype/StillImage"/>
    <dc:date>2024-07-02T19:10:07.426271</dc:date>
    <dc:format>image/svg+xml</dc:format>
    <dc:creator>
     <cc:Agent>
      <dc:title>Matplotlib v3.5.0, https://matplotlib.org/</dc:title>
     </cc:Agent>
    </dc:creator>
   </cc:Work>
  </rdf:RDF>
 </metadata>
 <defs>
  <style type="text/css">*{stroke-linejoin: round; stroke-linecap: butt}</style>
 </defs>
 <g id="figure_1">
  <g id="patch_1">
   <path d="M 0 360 
L 720 360 
L 720 0 
L 0 0 
z
" style="fill: #ffffff"/>
  </g>
  <g id="axes_1">
   <g id="line2d_1">
    <path d="M 115.363636 55.8 
L 118.910998 55.8 
L 122.45836 55.8 
L 126.005722 55.8 
L 129.553083 56.037402 
L 133.100445 57.224411 
L 136.647807 58.41142 
" clip-path="url(#p7e6e308285)" style="fill: none; stroke: #000000; stroke-width: 4; stroke-linecap: square"/>
   </g>
   <g id="line2d_2">
    <path d="M 136.647807 58.41142 
L 140.195168 58.826873 
L 143.74253 58.826873 
L 147.289892 58.826873 
L 150.837254 60.249775 
L 154.384615 63.919443 
L 157.931977 69.540132 
L 161.479339 75.457573 
L 165.026701 81.493212 
L 168.574062 87.234111 
L 172.121424 93.270253 
L 175.668786 100.903324 
L 179.216147 109.362272 
L 182.763509 118.475081 
L 186.310871 126.581951 
L 189.858233 134.986578 
L 193.405594 142.263547 
L 196.952956 147.821364 
L 200.500318 152.498984 
L 204.04768 155.904091 
L 207.595041 160.37499 
L 211.142403 164.274013 
L 214.689765 167.527726 
L 218.237127 171.490626 
L 221.784488 176.347303 
L 225.33185 180.373577 
L 228.879212 182.272792 
" clip-path="url(#p7e6e308285)" style="fill: none; stroke-dasharray: 7.4,3.2; stroke-dashoffset: 0; stroke: #d3d3d3; stroke-width: 2"/>
   </g>
   <g id="line2d_3">
    <path d="M 228.879212 182.272792 
L 232.426573 182.569544 
L 235.973935 182.569544 
L 239.521297 182.569544 
L 243.068659 182.569544 
L 246.61602 182.569544 
L 250.163382 183.628799 
L 253.710744 184.805748 
" clip-path="url(#p7e6e308285)" style="fill: none; stroke: #000000; stroke-width: 4; stroke-linecap: square"/>
   </g>
   <g id="line2d_4">
    <path d="M 253.710744 184.805748 
L 257.258106 185.570765 
L 260.805467 185.570765 
L 264.352829 185.570765 
L 267.900191 185.570765 
L 271.447552 188.000613 
L 274.994914 195.725225 
L 278.542276 209.42512 
L 282.089638 227.589878 
L 285.636999 246.614715 
L 289.184361 261.613781 
L 292.731723 272.737464 
L 296.279085 278.535701 
L 299.826446 281.139577 
L 303.373808 283.331519 
L 306.92117 284.514505 
L 310.468531 286.05314 
L 314.015893 287.41468 
L 317.563255 290.137356 
L 321.110617 292.386034 
L 324.657978 294.663985 
L 328.20534 297.030961 
L 331.752702 298.3924 
L 335.300064 299.930583 
L 338.847425 301.468766 
L 342.394787 303.539996 
L 345.942149 305.906972 
L 349.48951 307.385955 
L 353.036872 307.8 
" clip-path="url(#p7e6e308285)" style="fill: none; stroke-dasharray: 7.4,3.2; stroke-dashoffset: 0; stroke: #d3d3d3; stroke-width: 2"/>
   </g>
   <g id="line2d_5">
    <path d="M 353.036872 307.8 
L 356.584234 307.8 
L 360.131596 307.8 
L 363.678957 307.8 
L 367.226319 307.8 
L 370.773681 307.8 
L 374.321043 307.001032 
L 377.868404 305.225548 
" clip-path="url(#p7e6e308285)" style="fill: none; stroke: #000000; stroke-width: 4; stroke-linecap: square"/>
   </g>
   <g id="line2d_6">
    <path d="M 377.868404 305.225548 
L 381.415766 303.450065 
L 384.963128 303.272516 
L 388.51049 303.272516 
L 392.057851 303.272516 
L 395.605213 301.970679 
L 399.152575 296.023764 
L 402.699936 284.513499 
L 406.247298 271.787555 
L 409.79466 260.427275 
L 413.342022 250.90354 
L 416.889383 243.746278 
L 420.436745 236.939083 
L 423.984107 230.310946 
L 427.531469 221.757942 
L 431.07883 208.327639 
L 434.626192 187.884427 
L 438.173554 167.499559 
L 441.720915 150.844716 
L 445.268277 135.846153 
L 448.815639 120.997476 
L 452.363001 110.490434 
L 455.910362 101.641684 
L 459.457724 93.451322 
L 463.005086 88.747044 
L 466.552448 85.754373 
L 470.099809 83.736961 
L 473.647171 81.729105 
L 477.194533 80.552156 
L 480.741894 79.963681 
L 484.289256 79.666929 
L 487.836618 78.47992 
L 491.38398 77.292911 
L 494.931341 75.166354 
L 498.478703 73.039797 
L 502.026065 70.522935 
L 505.573427 67.437718 
L 509.120788 64.183503 
L 512.66815 61.315065 
L 516.215512 59.598429 
L 519.762873 58.826873 
" clip-path="url(#p7e6e308285)" style="fill: none; stroke-dasharray: 7.4,3.2; stroke-dashoffset: 0; stroke: #d3d3d3; stroke-width: 2"/>
   </g>
   <g id="line2d_7">
    <path d="M 519.762873 58.826873 
L 523.310235 58.826873 
L 526.857597 59.242326 
L 530.404959 60.429335 
L 533.95232 61.616344 
L 537.499682 61.853746 
L 541.047044 63.035725 
L 544.594406 67.593136 
L 548.141767 77.236578 
L 551.689129 89.217321 
L 555.236491 103.88996 
L 558.783853 119.42318 
L 562.331214 132.376667 
L 565.878576 146.635864 
L 569.425938 158.649301 
L 572.973299 169.95355 
L 576.520661 180.368045 
L 580.068023 190.222231 
L 583.615385 200.218255 
L 587.162746 211.69955 
L 590.710108 223.29703 
L 594.25747 234.221034 
L 597.804832 245.641972 
L 601.352193 257.004565 
L 604.899555 268.390798 
L 608.446917 277.591426 
L 611.994278 285.873127 
L 615.54164 293.302345 
L 619.089002 299.812033 
L 622.636364 305.078631 
" clip-path="url(#p7e6e308285)" style="fill: none; stroke: #000000; stroke-width: 4; stroke-linecap: square"/>
   </g>
  </g>
 </g>
 <defs>
  <clipPath id="p7e6e308285">
   <rect x="90" y="43.2" width="558" height="277.2"/>
  </clipPath>
 </defs>
</svg>
