<?xml version="1.0" encoding="utf-8" standalone="no"?>
<!DOCTYPE svg PUBLIC "-//W3C//DTD SVG 1.1//EN"
  "http://www.w3.org/Graphics/SVG/1.1/DTD/svg11.dtd">
<svg xmlns:xlink="http://www.w3.org/1999/xlink" width="720pt" height="360pt" viewBox="0 0 720 360" xmlns="http://www.w3.org/2000/svg" version="1.1">
 <metadata>
  <rdf:RDF xmlns:dc="http://purl.org/dc/elements/1.1/" xmlns:cc="http://creativecommons.org/ns#" xmlns:rdf="http://www.w3.org/1999/02/22-rdf-syntax-ns#">
   <cc:Work>
    <dc:type rdf:resource="http://purl.org/dc/dcmitype/StillImage"/>
    <dc:date>2024-07-02T19:10:09.992483</dc:date>
    <dc:format>image/svg+xml</dc:format>
    <dc:creator>
     <cc:Agent>
      <dc:title>Matplotlib v3.5.0, https://matplotlib.org/</dc:title>
     </cc:Agent>
    </dc:creator>
   </cc:Work>
  </rdf:RDF>
 </metadata>
 <defs>
  <style type="text/css">*{stroke-linejoin: round; stroke-linecap: butt}</style>
 </defs>
 <g id="figure_1">
  <g id="patch_1">
   <path d="M 0 360 
L 720 360 
L 720 0 
L 0 0 
z
" style="fill: #ffffff"/>
  </g>
  <g id="axes_1">
   <g id="line2d_1">
    <path d="M 115.363636 55.8 
L 120.104503 55.8 
L 124.84537 55.893834 
L 129.586236 55.893834 
L 134.327103 55.893834 
L 139.067969 55.893834 
L 143.808836 55.893834 
L 148.549703 55.893834 
L 153.290569 55.893834 
L 158.031436 55.893834 
L 162.772302 57.592434 
L 167.513169 60.234701 
L 172.254036 62.71969 
L 176.994902 63.915001 
L 181.735769 65.100182 
L 186.476636 66.347742 
L 191.217502 67.096277 
L 195.958369 67.096277 
L 200.699235 67.096277 
L 205.440102 67.096277 
L 210.180969 67.096277 
L 214.921835 68.323044 
L 219.662702 72.71616 
L 224.403568 77.172186 
L 229.144435 77.575244 
L 233.885302 75.750821 
L 238.626168 75.090254 
L 243.367035 73.338873 
L 248.107901 69.889424 
L 252.848768 68.975614 
L 257.589635 70.978107 
L 262.330501 74.901521 
L 267.071368 80.770382 
L 271.812234 90.467757 
L 276.553101 98.995946 
L 281.293968 102.851651 
L 286.034834 102.658119 
L 290.775701 100.458896 
L 295.516568 98.236214 
L 300.257434 95.887177 
L 304.998301 97.578313 
L 309.739167 101.593962 
L 314.480034 108.057812 
L 319.220901 115.900376 
L 323.961767 122.01555 
L 328.702634 123.175673 
L 333.4435 121.85454 
L 338.184367 120.415581 
L 342.925234 117.091955 
L 347.6661 114.332396 
L 352.406967 115.150241 
L 357.147833 120.204456 
L 361.8887 128.103 
L 366.629567 138.258347 
L 371.370433 146.81959 
L 376.1113 154.945254 
L 380.852167 160.156214 
L 385.593033 161.474149 
L 390.3339 161.474149 
L 395.074766 161.474149 
L 399.815633 162.133116 
L 404.5565 168.34319 
L 409.297366 179.221481 
L 414.038233 190.069384 
L 418.779099 196.185091 
L 423.519966 199.633473 
L 428.260833 201.069766 
L 433.001699 201.444034 
L 437.742566 201.444034 
L 442.483432 204.141748 
L 447.224299 211.517276 
L 451.965166 223.534366 
L 456.706032 232.941177 
L 461.446899 236.110725 
L 466.187766 235.924657 
L 470.928632 235.051365 
L 475.669499 235.612767 
L 480.410365 236.860327 
L 485.151232 238.107886 
L 489.892099 239.050486 
L 494.632965 242.751579 
L 499.373832 245.76065 
L 504.114698 246.792819 
L 508.855565 246.226619 
L 513.596432 245.478083 
L 518.337298 247.365417 
L 523.078165 249.315128 
L 527.819031 251.039319 
L 532.559898 252.951177 
L 537.300765 258.528941 
L 542.041631 266.649273 
L 546.782498 270.01022 
L 551.523364 270.360496 
L 556.264231 270.392485 
L 561.005098 273.527378 
L 565.745964 276.662271 
L 570.486831 278.481362 
L 575.227698 281.492138 
L 579.968564 287.637595 
L 584.709431 295.129936 
L 589.450297 299.48909 
L 594.191164 300.618291 
L 598.932031 300.618291 
L 603.672897 300.618291 
L 608.413764 300.618291 
L 613.15463 301.088685 
L 617.895497 304.97753 
L 622.636364 307.8 
" clip-path="url(#pfff61de4d4)" style="fill: none; stroke: #000000; stroke-width: 4; stroke-linecap: square"/>
   </g>
  </g>
 </g>
 <defs>
  <clipPath id="pfff61de4d4">
   <rect x="90" y="43.2" width="558" height="277.2"/>
  </clipPath>
 </defs>
</svg>
